<svg id="visual" viewBox="0 0 300 300" width="300" height="300" xmlns="http://www.w3.org/2000/svg" xmlns:xlink="http://www.w3.org/1999/xlink" version="1.1"><g fill="none" stroke="#dff2ff" stroke-width="1"><circle r="15" cx="127" cy="178"></circle><circle r="0" cx="257" cy="161"></circle><circle r="6" cx="226" cy="233"></circle><circle r="13" cx="263" cy="275"></circle><circle r="6" cx="210" cy="99"></circle><circle r="10" cx="22" cy="232"></circle><circle r="4" cx="45" cy="157"></circle><circle r="4" cx="213" cy="53"></circle><circle r="5" cx="111" cy="32"></circle><circle r="11" cx="94" cy="85"></circle><circle r="2" cx="30" cy="70"></circle><circle r="9" cx="18" cy="104"></circle><circle r="8" cx="98" cy="247"></circle><circle r="9" cx="164" cy="231"></circle><circle r="5" cx="156" cy="56"></circle><circle r="0" cx="211" cy="270"></circle><circle r="10" cx="34" cy="276"></circle><circle r="6" cx="66" cy="117"></circle><circle r="-1" cx="79" cy="209"></circle><circle r="1" cx="246" cy="109"></circle><circle r="8" cx="145" cy="19"></circle><circle r="9" cx="165" cy="268"></circle><circle r="2" cx="147" cy="107"></circle><circle r="8" cx="47" cy="27"></circle><circle r="0" cx="123" cy="143"></circle><circle r="12" cx="231" cy="200"></circle><circle r="5" cx="130" cy="77"></circle><circle r="5" cx="156" cy="156"></circle><circle r="8" cx="191" cy="163"></circle><circle r="0" cx="271" cy="196"></circle><circle r="2" cx="34" cy="193"></circle><circle r="4" cx="266" cy="236"></circle><circle r="8" cx="250" cy="45"></circle><circle r="13" cx="223" cy="17"></circle><circle r="0" cx="179" cy="131"></circle><circle r="8" cx="283" cy="31"></circle><circle r="13" cx="131" cy="267"></circle><circle r="0" cx="80" cy="275"></circle><circle r="-1" cx="88" cy="148"></circle><circle r="2" cx="129" cy="230"></circle><circle r="11" cx="284" cy="114"></circle><circle r="13" cx="167" cy="190"></circle><circle r="2" cx="197" cy="207"></circle><circle r="3" cx="64" cy="245"></circle><circle r="11" cx="63" cy="60"></circle><circle r="6" cx="272" cy="75"></circle><circle r="13" cx="79" cy="24"></circle><circle r="10" cx="184" cy="75"></circle><circle r="0" cx="225" cy="142"></circle><circle r="4" cx="181" cy="29"></circle><circle r="2" cx="17" cy="138"></circle><circle r="5" cx="103" cy="116"></circle></g></svg>