<svg version="1.2" xmlns="http://www.w3.org/2000/svg" viewBox="0 0 426 426" width="426" height="426"><defs><clipPath clipPathUnits="userSpaceOnUse" id="cp1"><path d="m-1883-147h3508v2480h-3508z"/></clipPath><linearGradient id="P" gradientUnits="userSpaceOnUse"/><radialGradient id="g1" cx="-2481.9" cy="16.7" r="0" href="#P"><stop stop-color="#3db7e7"/><stop offset="1" stop-color="#fff"/></radialGradient></defs><style>tspan{white-space:pre}.a{fill:#3db7e7;stroke:#fff;stroke-width:.4}.b{fill:url(#g1);stroke:#fff;stroke-width:.4}.c{fill:#004080;stroke:#fff;stroke-width:.4}.d{fill:#fff;stroke:#fff;stroke-width:.4}.e{fill:#004080}.f{fill:#fff}.g{fill:#3db7e7}</style><g clip-path="url(#cp1)"><path class="a" d="m211 42.6v-0.2-0.1l0.1-0.1v-0.1-0.2q0.2-1 0.4-1.9 0.2-1 0.4-2l0.1-0.1 0.1-0.6q0.2-1.4 0.5-2.9 0.2 1.6 0.5 3.2 0.3 1.6 0.6 3.1 0.4 1.6 0.7 3.2 0.4 1.5 0.8 3.1 0.4 1.6 0.9 3.1 0.4 1.6 0.9 3.2 0.4 1.5 1 3.1 0.5 1.5 1 3.1 0.5 1.5 1.1 3.1 0.6 1.5 1.2 3 0.6 1.6 1.2 3.1 0.6 1.5 1.3 3.1 0.6 1.5 1.3 3 0.6 1.6 1.3 3.1 0.7 1.5 1.4 3 0.8 1.5 1.5 3.1 0.7 1.5 1.5 3 0.7 1.5 1.5 3 0.8 1.5 1.6 3 0.7 1.5 1.5 3 0.8 1.5 1.6 3 0.9 1.5 1.7 3 0.8 1.5 1.6 2.9 0.9 1.5 1.7 3 0.8 1.5 1.7 3 0.8 1.4 1.7 2.9 0.8 1.5 1.7 2.9 0.8 1.5 1.7 3l1.7 2.9 1.7 2.9 1.7 2.9 1.8 2.9 1.7 2.9 1.6 2.9q0.9 1.4 1.7 2.9 0.9 1.4 1.7 2.8 0.8 1.5 1.6 2.9 0.8 1.4 1.6 2.8 0.9 1.5 1.6 2.9 0.8 1.4 1.6 2.8 0.8 1.4 1.5 2.9 0.8 1.4 1.5 2.8 0.8 1.4 1.5 2.8 0.7 1.4 1.4 2.8 0.7 1.4 1.4 2.8 0.7 1.4 1.4 2.8 0.6 1.4 1.3 2.8 0.6 1.4 1.2 2.7 0.6 1.4 1.2 2.8 0.6 1.4 1.1 2.8 0.6 1.3 1.1 2.7 0.5 1.4 1 2.8 0.5 1.3 1 2.7 0.4 1.4 0.8 2.7 0.5 1.4 0.9 2.8 0.3 1.3 0.7 2.7 0.3 1.3 0.7 2.7 0.3 1.3 0.5 2.7 0.3 1.3 0.5 2.7 0.3 1.3 0.4 2.7 0.2 1.3 0.4 2.6 0.1 1.4 0.2 2.7 0.1 1.4 0.2 2.7 0 1.3 0 2.6 0 2.2-0.1 4.3 0 0.5 0 1-0.1 2.1-0.3 4.1-0.1 0.1-0.1 0.3-0.2 1.9-0.4 3.7-0.1 0.5-0.2 0.9-0.3 1.9-0.6 3.8-0.1 0.2-0.1 0.5-0.4 1.7-0.8 3.3-0.1 0.4-0.2 0.8-0.5 1.8-1 3.5-0.1 0.3-0.2 0.6-0.5 1.5-1 3-0.2 0.4-0.3 0.7-0.6 1.7-1.3 3.3-0.2 0.3-0.3 0.6-0.6 1.4-1.3 2.7-0.1 0.3-0.3 0.6-0.8 1.5-1.6 3-0.2 0.3-0.4 0.6-0.7 1.3-1.5 2.6-0.2 0.2-0.3 0.4-1 1.4-1.9 2.7-0.3 0.4-0.5 0.7-0.9 1.2-1.8 2.3-0.1 0.2-0.3 0.3-1 1.3-2.1 2.5-0.3 0.3-0.6 0.6-1 1.1-2 2.1l-0.3 0.3q-1.1 1.1-2.3 2.1-0.3 0.3-0.7 0.6-1.1 1-2.3 2-0.2 0.2-0.4 0.3-1.1 0.8-2.2 1.6-0.4 0.3-0.8 0.6-1.2 0.9-2.5 1.7-0.3 0.2-0.6 0.4-1.1 0.7-2.1 1.3-0.5 0.2-0.9 0.5-1.3 0.7-2.6 1.4-0.4 0.2-0.9 0.5-1 0.5-1.9 0.9-0.6 0.3-1.1 0.5-1.3 0.6-2.6 1.1-0.5 0.2-1.1 0.5-0.9 0.3-1.8 0.7-0.6 0.2-1.2 0.4-1.3 0.4-2.6 0.8-0.7 0.2-1.3 0.4-0.9 0.3-1.8 0.5-0.6 0.2-1.3 0.4-1.3 0.3-2.6 0.6-0.7 0.1-1.5 0.3-0.8 0.1-1.5 0.3-1.2 0.2-2.3 0.4-0.9 0.1-1.7 0.2-0.9 0.1-1.7 0.2-0.7 0.1-1.4 0.2-1.4 0.1-2.8 0.2-0.6 0-1.3 0.1-0.9 0-1.8 0-0.6 0.1-1.2 0.1-1.5 0-3 0-0.6 0-1.2 0-0.9-0.1-1.9-0.1-0.5-0.1-1-0.1-1.6-0.1-3.2-0.3-0.6 0-1.1-0.1-0.9-0.1-1.9-0.2-0.3 0-0.6-0.1-1.9-0.2-3.6-0.6-0.5-0.1-1-0.2-3.1-0.6-6.1-1.4-0.4-0.1-0.9-0.2-3-0.9-5.9-2-0.5-0.2-0.9-0.3-1.8-0.7-3.6-1.5-0.2-0.1-0.3-0.1c-24.6-11-43.5-34.4-43.5-70.4 0-54.3 62.1-113.1 76.6-177.4z"/><path class="b" d="m214.1 297.6q-1.5 0-3 0"/><path class="a" d="m139.6 163.6c0.8-1.3 2.5-1.8 3.9-1 1.3 0.8 1.7 2.5 0.9 3.8-0.7 1.4-2.5 1.8-3.8 1-1.3-0.8-1.7-2.5-1-3.8zm-7.3-21.9c0.7-1.3 2.4-1.8 3.8-1 1.3 0.8 1.7 2.5 1 3.8-0.8 1.4-2.5 1.8-3.9 1-1.3-0.8-1.7-2.5-0.9-3.8zm16.3-18.7c1.7-2.9 5.4-3.8 8.3-2.1 3 1.7 3.9 5.5 2.2 8.4-1.7 2.9-5.5 3.9-8.4 2.1-2.9-1.7-3.9-5.5-2.1-8.4zm-9.7-20.1c0.8-1.4 2.5-1.8 3.9-1 1.3 0.8 1.7 2.5 0.9 3.8-0.8 1.3-2.5 1.8-3.8 1-1.3-0.8-1.7-2.5-1-3.8zm-23.6-7.2c1.5-2.5 4.8-3.3 7.3-1.8 2.5 1.4 3.3 4.7 1.8 7.2-1.4 2.5-4.7 3.4-7.2 1.9-2.5-1.5-3.3-4.8-1.9-7.3zm29.5-39.7c0.8-1.3 2.5-1.8 3.8-1 1.4 0.8 1.8 2.5 1 3.8-0.8 1.4-2.5 1.8-3.8 1-1.3-0.8-1.8-2.5-1-3.8zm26.7 28.3c0.8-1.3 2.5-1.8 3.8-1 1.4 0.8 1.8 2.5 1 3.8-0.8 1.4-2.5 1.8-3.8 1-1.3-0.8-1.8-2.5-1-3.8zm-3.7-41.9c0.8-1.3 2.5-1.8 3.8-1 1.4 0.8 1.8 2.5 1 3.8-0.8 1.4-2.5 1.8-3.8 1-1.3-0.8-1.8-2.5-1-3.8zm-60.9 151.1c0.8-1.3 2.5-1.8 3.8-1 1.3 0.8 1.8 2.5 1 3.8-0.8 1.4-2.5 1.8-3.8 1-1.4-0.8-1.8-2.5-1-3.8zm26 83c0.8-1.3 2.5-1.8 3.9-1 1.3 0.8 1.7 2.5 0.9 3.8-0.7 1.4-2.5 1.8-3.8 1-1.3-0.8-1.7-2.5-1-3.8zm-46.4-35c1.4-2.5 4.7-3.3 7.2-1.8 2.5 1.4 3.4 4.7 1.9 7.2-1.5 2.5-4.8 3.4-7.3 1.9-2.5-1.5-3.3-4.8-1.8-7.3zm202.2-90.2c1.8-2.9 5.5-3.9 8.4-2.2 2.9 1.7 3.9 5.5 2.2 8.4-1.7 2.9-5.5 3.9-8.4 2.2-2.9-1.8-3.9-5.5-2.2-8.4zm43.4 58.7c1.7-2.9 5.5-3.9 8.4-2.1 2.9 1.7 3.8 5.4 2.1 8.4-1.7 2.9-5.5 3.8-8.4 2.1-2.9-1.7-3.9-5.5-2.1-8.4zm-115.1 104.5c0.8-1.4 2.5-1.8 3.9-1 1.3 0.8 1.7 2.5 0.9 3.8-0.7 1.3-2.4 1.8-3.8 1-1.3-0.8-1.7-2.5-1-3.8zm109.8-53.2c0.8-1.3 2.5-1.8 3.9-1 1.3 0.8 1.7 2.5 0.9 3.8-0.8 1.3-2.5 1.8-3.8 1-1.3-0.8-1.7-2.5-1-3.8zm-34.8-151c0.8-1.3 2.5-1.7 3.8-0.9 1.3 0.7 1.8 2.4 1 3.8-0.8 1.3-2.5 1.7-3.8 1-1.3-0.8-1.8-2.5-1-3.9zm-21-20.8c1.7-2.9 5.5-3.9 8.4-2.2 2.9 1.8 3.9 5.5 2.1 8.4-1.7 2.9-5.4 3.9-8.4 2.2-2.9-1.7-3.8-5.5-2.1-8.4zm43.4 69.2c0.8-1.3 2.5-1.8 3.9-1 1.3 0.8 1.7 2.5 0.9 3.8-0.7 1.4-2.5 1.8-3.8 1-1.3-0.8-1.7-2.5-1-3.8zm-81.9-135.9c0.8-1.3 2.5-1.7 3.8-0.9 1.3 0.7 1.8 2.4 1 3.8-0.8 1.3-2.5 1.7-3.8 0.9-1.4-0.7-1.8-2.4-1-3.8zm12.7 58.2c0.8-1.3 2.5-1.8 3.8-1 1.3 0.8 1.8 2.5 1 3.8-0.8 1.4-2.5 1.8-3.8 1-1.3-0.8-1.8-2.5-1-3.8zm64 105.9c0.8-1.3 2.5-1.7 3.8-0.9 1.4 0.8 1.8 2.5 1 3.8-0.8 1.3-2.5 1.8-3.8 1-1.3-0.8-1.8-2.5-1-3.9zm-201-48.5c0.8-1.3 2.5-1.7 3.8-1 1.3 0.8 1.8 2.5 1 3.9-0.8 1.3-2.5 1.7-3.8 0.9-1.3-0.7-1.8-2.5-1-3.8z"/><path fill-rule="evenodd" class="c" d="m235.4 47.3c2.7-4.6 8.7-6.1 13.3-3.4 4.6 2.8 6.1 8.7 3.4 13.3-2.7 4.6-8.7 6.2-13.3 3.4-4.6-2.7-6.1-8.6-3.4-13.3zm115.5 135.3c11 21.2 17.2 45.3 17.2 70.8 0 85-68.9 154-154 154-85 0-153.9-69-153.9-154 0-26.1 6.5-50.8 18-72.3 8.3-15.7 19.2-15.1 24.2-10 4.4 4.4 4.1 11.9-4.9 21.5-7.8 8.3-17.9 14.2-22.7 24.4-9.2 19.1-2.8 33.7 12.7 41 15.5 7.2-6.4 12.7 5.5 28.2 11.8 15.5 26.4 4.6 29.1 26.4 2.8 21.9 23.7 23.7 37.4 8.2 13.6-15.5 27.3-17.3 33.7-0.9 8 20.7 28.9 22.8 38-0.2 1.8-4.4 7.4-10.1 15-9.5 6 0.5 12.1 5 15.4 13.7 3.8 9.7 16.8 11.2 24.9 7.2 8.9-4.5 13.4-16.2 23.3-26.7 14.6-15.5 41.9-13.6 51-46.4 7.1-25.7-0.2-44.7-11.2-55.2-3-2.9-17.8-8.6-24-17.1-4.4-6-2.8-11.1-0.8-14.1 4.5-6.6 17.9-4.8 26.1 11zm-181.3-114c1.7-2.9 5.5-3.9 8.4-2.2 2.9 1.7 3.9 5.5 2.2 8.4-1.8 2.9-5.5 3.9-8.4 2.2-2.9-1.8-3.9-5.5-2.2-8.4zm-73.5 153.9c2.5-4.3 8-5.7 12.3-3.2 4.3 2.5 5.7 8.1 3.1 12.3-2.5 4.3-8 5.7-12.3 3.2-4.3-2.5-5.7-8.1-3.1-12.3zm48.6 57.3c1.7-2.9 5.5-3.9 8.4-2.1 2.9 1.7 3.9 5.4 2.2 8.4-1.8 2.9-5.5 3.8-8.4 2.1-2.9-1.7-3.9-5.5-2.2-8.4zm121.4 19.3c1.7-2.9 5.5-3.9 8.4-2.1 2.9 1.7 3.9 5.5 2.1 8.4-1.7 2.9-5.5 3.8-8.4 2.1-2.9-1.7-3.8-5.5-2.1-8.4zm46.6-57.3c2.3-4 7.5-5.3 11.5-3 4 2.4 5.3 7.6 3 11.6-2.4 4-7.6 5.3-11.6 2.9-4-2.3-5.3-7.5-2.9-11.5zm-197.2-91.8c1.7-2.9 5.4-3.8 8.3-2.1 3 1.7 3.9 5.5 2.2 8.4-1.7 2.9-5.5 3.9-8.4 2.1-2.9-1.7-3.9-5.4-2.1-8.4zm7.1 17.7c0.8-1.4 2.5-1.8 3.8-1 1.4 0.8 1.8 2.5 1 3.8-0.8 1.3-2.5 1.8-3.8 1-1.3-0.8-1.8-2.5-1-3.8zm33.1-62.8c0.8-1.3 2.5-1.7 3.8-0.9 1.4 0.7 1.8 2.5 1 3.8-0.8 1.3-2.5 1.7-3.8 1-1.3-0.8-1.8-2.5-1-3.9zm168.3 33c2.7-4.6 8.7-6.2 13.3-3.4 4.6 2.7 6.2 8.7 3.4 13.3-2.7 4.6-8.7 6.2-13.3 3.4-4.7-2.7-6.2-8.7-3.4-13.3zm-204.8-19.2c3.2-5.4 10.2-7.2 15.7-4 5.4 3.2 7.2 10.2 4 15.6-3.2 5.5-10.2 7.3-15.7 4.1-5.4-3.3-7.2-10.3-4-15.7zm-9.2-6.4c0.8-1.3 2.5-1.7 3.9-1 1.3 0.8 1.7 2.5 0.9 3.9-0.7 1.3-2.5 1.7-3.8 0.9-1.3-0.7-1.7-2.5-1-3.8zm183.9 9.9c1.7-2.9 5.5-3.9 8.4-2.2 2.9 1.8 3.8 5.5 2.1 8.4-1.7 2.9-5.5 3.9-8.4 2.2-2.9-1.7-3.9-5.5-2.1-8.4zm-119.6-108.1c2.3-4 7.5-5.3 11.6-2.9 4 2.3 5.3 7.5 3 11.6-2.4 4-7.6 5.3-11.7 3-4-2.4-5.3-7.6-2.9-11.7z"/><path class="d" d="m-923.2 682.9c1.7-2.8 5.3-3.7 8.1-2.1 2.9 1.7 3.8 5.3 2.1 8.2-1.7 2.8-5.3 3.7-8.1 2.1-2.9-1.7-3.8-5.4-2.1-8.2zm-7.9 2.7c0.8-1.3 2.5-1.7 3.8-1 1.3 0.8 1.7 2.5 0.9 3.8-0.8 1.3-2.4 1.7-3.7 0.9-1.3-0.7-1.8-2.4-1-3.7z"/><path class="d" d="m211.4 325.5c-2.8 1.7-6.5 0.7-8.2-2.1-1.6-2.8-0.7-6.5 2.1-8.1 2.9-1.7 6.5-0.8 8.2 2 1.6 2.9 0.7 6.5-2.1 8.2zm9-1.7c-1.3 0.7-3 0.3-3.8-1-0.7-1.3-0.3-3 1-3.7 1.3-0.8 3-0.4 3.7 0.9 0.8 1.3 0.4 3-0.9 3.8z"/><path class="d" d="m178.9 328.8c-2.6 0-4.7-2.1-4.7-4.7 0-2.6 2.1-4.7 4.7-4.7 2.6 0 4.7 2.1 4.7 4.7 0 2.6-2.1 4.7-4.7 4.7zm67 3.7c-2.6 0-4.7-2.1-4.7-4.7 0-2.6 2.1-4.7 4.7-4.7 2.6 0 4.7 2.1 4.7 4.7 0 2.6-2.1 4.7-4.7 4.7zm57.5-5.4c7.3-6.6 8.2-15.6 17.6-23.1 3.9-3 11-3.4 3 2.6-6.6 4.9-9.5 17.3-20.4 22.6-6.5 3.1-3.8 1.2-0.2-2.1zm-160.2 12.4c6.9-1.2 12.4-5.3 17.3-9.1 3.9-3.1 8-6.2 10.2-2.9 1.4 2.1 0 5.8-6.4 9.5-5.5 3.2-13 5.8-20.7 5-7.7-0.7-7.9-1.2-0.4-2.5z"/><path fill-rule="evenodd" class="e" d="m-19.8 546.7q-12.8 0-22.8-5.6c-6.5-3.7-11.7-8.9-15.5-15.5q-5.6-10-5.6-23.4c0-8.8 1.8-16.6 5.6-23.3q5.7-10 15.5-15.6c6.7-3.7 14.2-5.5 22.8-5.5 2.5 0 5 0.3 7.2 0.8q5.2 1.3 11.3 4.2c3.1 1.4 5.2 2.2 6.3 2.2 1.1 0 1.9-0.7 2.5-1.8q0.8-1.9 0.8-3.4h1.3v25.1h-1.3q-1.8-6.4-5.9-12.4-4.1-5.9-9.8-9.8-5.7-3.9-11.9-3.9-6.4 0-12 5c-3.7 3.3-6.7 8.2-9.1 14.7q-3.5 9.7-3.5 23.7 0 14.1 3.5 23.8c2.4 6.5 5.4 11.4 9.1 14.7q5.6 5 12 5 6.2 0 11.9-3.9 5.7-3.9 9.8-9.8c2.7-4 4.7-8.1 5.9-12.4h1.3v24.9h-1.3q0-1.6-0.8-3.4-0.8-1.9-2.5-1.9-1.6 0-6.3 2.3-2.2 1.2-5 2.3-6.9 2.9-13.5 2.9zm125.5-1h-41.1v-1q2.7 0 4.1-2.5 1.3-2.4 1.3-6.4c0-3.6-0.8-7.7-2.5-12.3l-1.1-2.6h-32.6c-1.2 2.9-2.1 5.6-2.7 7.9q-1 3.3-1 7.1 0 3.9 1.4 6.3 1.4 2.5 4.2 2.5v1h-22v-1q3.4 0 6.8-3c2.2-2 4.2-4.6 6.2-7.9q2.9-4.8 5.1-10.5l25.3-64.5h4.9l25.3 64.5c1.4 3.8 3.2 7.3 5.2 10.5q3 4.9 6.4 7.9 3.4 3 6.8 3zm-39.6-25.8l-16-40.7-15.9 40.7zm113.8 25.8h-9.4l-51.7-73v50.7c0 5.8 0.9 10.8 2.9 15q2.9 6.4 7 6.4v0.9h-20.8v-0.9q4 0 7-6.4c1.9-4.2 2.9-9.2 2.9-15v-40.9q0-5.9-1.4-11.1-1.3-5.1-3.5-8.3-2.3-3.3-5-3.3v-1h26.6l44.4 62.3v-39.9q0-8.7-3-15c-1.9-4.2-4.2-6.4-7-6.4v-1h20.9v1q-4.1 0-7 6.4-2.9 6.3-2.9 15zm82.1 0h-69.5v-1q4.1 0 7-3.3 2.9-3.3 2.9-8.2v-62c0-3.2-1-5.9-2.9-8.1q-2.9-3.3-7-3.3v-1h39.7v1q-4.1 0-7 3.3-2.8 3.3-2.9 8.1v73.5h10.5c4.2 0 8.2-1.2 12.1-3.7q5.8-3.6 10.1-9.3c2.8-3.8 4.8-7.9 6-12.1h1zm44.3 0h-39.7v-1q4 0.1 7-3.3 2.9-3.3 2.9-8.1v-62.1c0-3.2-1-5.9-2.9-8.1q-3-3.3-7-3.3v-1h39.7v1q-4.1 0-7 3.3-2.9 3.3-2.9 8.1v62.1q0 4.8 2.9 8.1 2.9 3.4 7 3.3z"/><path class="f" d="m237.1 263.5l-2.5-0.6-2.5-0.6-2.7-0.5-3-0.4-3.2-0.4-3.2-0.3-2.8-0.2-2.5-0.1h-3.1l-3.4 0.2-2.9 0.2-3.3 0.4-2.5 0.4-3.7 0.7-4.4 1.2-4.6 1.3-39-2.4 40.6-2.6-21.1-4.8 21.2 2.1-37.5-14.8 39.8 10.3-18.9-11.3 19.5 8.6-30-24.9 33.5 21.3-14.5-16.6 15.9 14.2-20-31.9 24.3 29.1-8.5-19.8 10.7 18.4-9.9-38.8 14.9 37.9-2-21.9 4.6 20.8 2.5-40.3 2.5 41 4.9-21.5-2.2 21.2 14.8-37.5-10.2 39.8 11.3-19-8.6 19.6 25.7-31.2-22.1 34.7 16.6-14.5-14.2 15.9 34-21.7-31.6 26.2 20.2-8.7-18.4 10.7 38-9.6-37.1 14.6 21.9-2-20.8 4.5 40.2 2.5-36.4 2.3-1.4-0.4z"/><path class="g" d="m379 544q-3.8 0-7.3-0.7c-3.6-0.8-7.6-2.1-12.1-4q-4.9-2.1-6.4-2.1-1.5 0-2.3 0.9-0.7 0.8-1.1 2-0.4 1.1-0.4 2h-1.1v-23.7h1.1q1.9 6.1 6.7 11.7 4.8 5.6 11.1 9.3 6.2 3.7 11.8 3.7 7.5 0 11.4-3 3.9-3 3.9-8.5c0-2.8-0.9-5.4-2.7-7.6q-2.7-3.4-6.9-6.2-4.2-2.8-9-5.5-2-1.1-4-2.3-1.9-1.2-4-2.4c-6.3-3.5-11-6.7-13.9-9.5q-6.4-6.1-6.4-14.4 0-6.7 3.6-12.1 3.6-5.4 10.2-8.5 6.6-3.1 15.7-3.1 4 0 7.2 0.8 4.8 1.1 10 3.9c2.5 1.4 4.2 2.1 5.2 2.1q1.5 0 2.3-0.8c0.5-0.6 0.9-1.2 1.1-2q0.4-1.2 0.4-2.1h1.2v23.7h-1.2q-1.7-6.1-5.6-11.6-3.9-5.6-9.3-9.3-5.4-3.8-11.3-3.8-5.3 0-8.6 1.9-3.4 1.8-5 4.8c-1 1.9-1.5 4.1-1.5 6.5q0 4.3 2.3 7.4 2.3 3.1 6.1 5.6 6.8 4.4 17.5 9.7 4.1 2 8.1 4.3c2.6 1.4 4.9 3.1 7 5 4.5 4.1 6.8 9.3 6.8 15.5q0 6.3-3.2 11.4c-2.1 3.4-5.4 6-9.9 8q-6.8 3-17.5 3zm75.5 0q-10.9 0-18.3-3.4-7.4-3.4-11.2-10.8-3.7-7.4-3.7-19.5v-37.7c0-2.9-0.9-5.5-2.7-7.6q-2.8-3.1-6.7-3.1v-1h37.5v1q-3.8 0-6.6 3.1-2.7 3.1-2.7 7.6v37.7q0 10 1.9 16.9 2 7 6.3 10.7 4.5 3.6 11.8 3.6c6.9 0 12.3-3.5 16.2-10.3q5.2-9 5.3-20.9v-37.7q0-4.5-2.7-7.6-2.8-3.1-6.7-3.1v-1h19.8v1q-3.9 0-6.7 3.1-2.7 3.1-2.7 7.6v37.7c-0.1 9.5-2.2 17.3-6.5 23.4q-7.3 10.3-21.6 10.3z"/><text style="transform:matrix(1,0,0,1,104,8)" ></text></g></svg>