<svg id="visual" viewBox="0 0 900 400" width="900" height="400" xmlns="http://www.w3.org/2000/svg" xmlns:xlink="http://www.w3.org/1999/xlink" version="1.1"><path d="M134 0L125.8 16.7C117.7 33.3 101.3 66.7 99 100C96.7 133.3 108.3 166.7 109.3 200C110.3 233.3 100.7 266.7 97.5 300C94.3 333.3 97.7 366.7 99.3 383.3L101 400L0 400L0 383.3C0 366.7 0 333.3 0 300C0 266.7 0 233.3 0 200C0 166.7 0 133.3 0 100C0 66.7 0 33.3 0 16.7L0 0Z" fill="#e3e3e3"></path><path d="M60 0L62.7 16.7C65.3 33.3 70.7 66.7 75.2 100C79.7 133.3 83.3 166.7 84.8 200C86.3 233.3 85.7 266.7 87.8 300C90 333.3 95 366.7 97.5 383.3L100 400L0 400L0 383.3C0 366.7 0 333.3 0 300C0 266.7 0 233.3 0 200C0 166.7 0 133.3 0 100C0 66.7 0 33.3 0 16.7L0 0Z" fill="#f1f1f1"></path><path d="M67 0L61.2 16.7C55.3 33.3 43.7 66.7 38.8 100C34 133.3 36 166.7 38 200C40 233.3 42 266.7 43.3 300C44.7 333.3 45.3 366.7 45.7 383.3L46 400L0 400L0 383.3C0 366.7 0 333.3 0 300C0 266.7 0 233.3 0 200C0 166.7 0 133.3 0 100C0 66.7 0 33.3 0 16.7L0 0Z" fill="#ffffff"></path></svg>