<svg version="1.2" xmlns="http://www.w3.org/2000/svg" viewBox="0 0 1605 663" width="400" height="165">
	<title>Su-krevoy-cdr</title>
	<defs>
		<clipPath clipPathUnits="userSpaceOnUse" id="cp1">
			<path d="m-1295-407h3508v2480h-3508z"/>
		</clipPath>
		<radialGradient id="g1" cx="-2528.9" cy="-158.2" r="0" gradientUnits="userSpaceOnUse">
			<stop offset="0" stop-color="#3db7e7"/>
			<stop offset="1" stop-color="#ffffff"/>
		</radialGradient>
	</defs>
	<style>
		.s0 { fill: #3db7e7;stroke: #ffffff;stroke-width: .4 } 
		.s1 { fill: url(#g1);stroke: #ffffff;stroke-width: .4 } 
		.s2 { fill: #004080;stroke: #ffffff;stroke-width: .4 } 
		.s3 { fill: #ffffff;stroke: #ffffff;stroke-width: .4 } 
		.s4 { fill: #004080 } 
		.s5 { fill: #ffffff } 
		.s6 { fill: #3db7e7 } 
	</style>
	<g id="Page 2" clip-path="url(#cp1)">
		<g id="Group 9">
			<path id="Object 11" class="s0" d="m164 148.6v-0.2-0.1l0.1-0.1v-0.1-0.2q0.2-1 0.4-1.9 0.2-1 0.4-2l0.1-0.1 0.1-0.6q0.2-1.4 0.5-2.9 0.2 1.6 0.5 3.2 0.3 1.6 0.6 3.1 0.4 1.6 0.7 3.2 0.4 1.5 0.8 3.1 0.4 1.6 0.9 3.1 0.4 1.6 0.9 3.2 0.4 1.5 1 3.1 0.5 1.5 1 3.1 0.5 1.5 1.1 3.1 0.6 1.5 1.2 3 0.6 1.6 1.2 3.1 0.6 1.5 1.3 3.1 0.6 1.5 1.3 3 0.6 1.6 1.3 3.1 0.7 1.5 1.4 3 0.8 1.5 1.5 3.1 0.7 1.5 1.5 3 0.7 1.5 1.5 3 0.8 1.5 1.6 3 0.7 1.5 1.5 3 0.8 1.5 1.6 3 0.9 1.5 1.7 3 0.8 1.5 1.6 2.9 0.9 1.5 1.7 3 0.8 1.5 1.7 3 0.8 1.4 1.7 2.9 0.8 1.5 1.7 2.9 0.8 1.5 1.7 3l1.7 2.9 1.7 2.9 1.7 2.9 1.8 2.9 1.7 2.9 1.6 2.9q0.9 1.4 1.7 2.9 0.9 1.4 1.7 2.8 0.8 1.5 1.6 2.9 0.8 1.4 1.6 2.8 0.9 1.5 1.6 2.9 0.8 1.4 1.6 2.8 0.8 1.4 1.5 2.9 0.8 1.4 1.5 2.8 0.8 1.4 1.5 2.8 0.7 1.4 1.4 2.8 0.7 1.4 1.4 2.8 0.7 1.4 1.4 2.8 0.6 1.4 1.3 2.8 0.6 1.4 1.2 2.7 0.6 1.4 1.2 2.8 0.6 1.4 1.1 2.8 0.6 1.3 1.1 2.7 0.5 1.4 1 2.8 0.5 1.3 1 2.7 0.4 1.4 0.8 2.7 0.5 1.4 0.9 2.8 0.3 1.3 0.7 2.7 0.3 1.3 0.7 2.7 0.3 1.3 0.5 2.7 0.3 1.3 0.5 2.7 0.3 1.3 0.4 2.7 0.2 1.3 0.4 2.6 0.1 1.4 0.2 2.7 0.1 1.4 0.2 2.7 0 1.3 0 2.6 0 2.2-0.1 4.3 0 0.5 0 1-0.1 2.1-0.3 4.1-0.1 0.1-0.1 0.3-0.2 1.9-0.4 3.7-0.1 0.5-0.2 0.9-0.3 1.9-0.6 3.8-0.1 0.2-0.1 0.5-0.4 1.7-0.8 3.3-0.1 0.4-0.2 0.8-0.5 1.8-1 3.5-0.1 0.3-0.2 0.6-0.5 1.5-1 3-0.2 0.4-0.3 0.7-0.6 1.7-1.3 3.3-0.2 0.3-0.3 0.6-0.6 1.4-1.3 2.7-0.1 0.3-0.3 0.6-0.8 1.5-1.6 3-0.2 0.3-0.4 0.6-0.7 1.3-1.5 2.6-0.2 0.2-0.3 0.4-1 1.4-1.9 2.7-0.3 0.4-0.5 0.7-0.9 1.2-1.8 2.3-0.1 0.2-0.3 0.3-1 1.3-2.1 2.5-0.3 0.3-0.6 0.6-1 1.1-2 2.1l-0.3 0.3q-1.1 1.1-2.3 2.1-0.3 0.3-0.7 0.6-1.1 1-2.3 2-0.2 0.2-0.4 0.3-1.1 0.8-2.2 1.6-0.4 0.3-0.8 0.6-1.2 0.9-2.5 1.7-0.3 0.2-0.6 0.4-1.1 0.7-2.1 1.3-0.5 0.2-0.9 0.5-1.3 0.7-2.6 1.4-0.4 0.2-0.9 0.5-1 0.5-1.9 0.9-0.6 0.3-1.1 0.5-1.3 0.6-2.6 1.1-0.5 0.2-1.1 0.5-0.9 0.3-1.8 0.7-0.6 0.2-1.2 0.4-1.3 0.4-2.6 0.8-0.7 0.2-1.3 0.4-0.9 0.3-1.8 0.5-0.6 0.2-1.3 0.4-1.3 0.3-2.6 0.6-0.7 0.1-1.5 0.3-0.8 0.1-1.5 0.3-1.2 0.2-2.3 0.4-0.9 0.1-1.7 0.2-0.9 0.1-1.7 0.2-0.7 0.1-1.4 0.2-1.4 0.1-2.8 0.2-0.6 0-1.3 0.1-0.9 0-1.8 0-0.6 0.1-1.2 0.1-1.5 0-3 0-0.6 0-1.2 0-0.9-0.1-1.9-0.1-0.5-0.1-1-0.1-1.6-0.1-3.2-0.3-0.6 0-1.1-0.1-0.9-0.1-1.9-0.2-0.3 0-0.6-0.1-1.9-0.2-3.6-0.6-0.5-0.1-1-0.2-3.1-0.6-6.1-1.4-0.4-0.1-0.9-0.2-3-0.9-5.9-2-0.5-0.2-0.9-0.3-1.8-0.7-3.6-1.5-0.2-0.1-0.3-0.1c-24.6-11-43.5-34.4-43.5-70.4 0-54.3 62.1-113.1 76.6-177.4z"/>
			<path id="Object 12" class="s1" d="m167.1 403.6q-1.5 0-3 0"/>
			<path id="Object 13" class="s0" d="m92.6 269.6c0.8-1.3 2.5-1.8 3.9-1 1.3 0.8 1.7 2.5 0.9 3.8-0.7 1.4-2.5 1.8-3.8 1-1.3-0.8-1.7-2.5-1-3.8zm-7.3-21.9c0.7-1.3 2.4-1.8 3.8-1 1.3 0.8 1.7 2.5 1 3.8-0.8 1.4-2.5 1.8-3.9 1-1.3-0.8-1.7-2.5-0.9-3.8zm16.3-18.7c1.7-2.9 5.4-3.8 8.3-2.1 3 1.7 3.9 5.5 2.2 8.4-1.7 2.9-5.5 3.9-8.4 2.1-2.9-1.7-3.9-5.5-2.1-8.4zm-9.7-20.1c0.8-1.4 2.5-1.8 3.9-1 1.3 0.8 1.7 2.5 0.9 3.8-0.8 1.3-2.5 1.8-3.8 1-1.3-0.8-1.7-2.5-1-3.8zm-23.6-7.2c1.5-2.5 4.8-3.3 7.3-1.8 2.5 1.4 3.3 4.7 1.8 7.2-1.4 2.5-4.7 3.4-7.2 1.9-2.5-1.5-3.3-4.8-1.9-7.3zm29.5-39.7c0.8-1.3 2.5-1.8 3.8-1 1.4 0.8 1.8 2.5 1 3.8-0.8 1.4-2.5 1.8-3.8 1-1.3-0.8-1.8-2.5-1-3.8zm26.7 28.3c0.8-1.3 2.5-1.8 3.8-1 1.4 0.8 1.8 2.5 1 3.8-0.8 1.4-2.5 1.8-3.8 1-1.3-0.8-1.8-2.5-1-3.8zm-3.7-41.9c0.8-1.3 2.5-1.8 3.8-1 1.4 0.8 1.8 2.5 1 3.8-0.8 1.4-2.5 1.8-3.8 1-1.3-0.8-1.8-2.5-1-3.8zm-60.9 151.1c0.8-1.3 2.5-1.8 3.8-1 1.3 0.8 1.8 2.5 1 3.8-0.8 1.4-2.5 1.8-3.8 1-1.4-0.8-1.8-2.5-1-3.8zm26 83c0.8-1.3 2.5-1.8 3.9-1 1.3 0.8 1.7 2.5 0.9 3.8-0.7 1.4-2.5 1.8-3.8 1-1.3-0.8-1.7-2.5-1-3.8zm-46.4-35c1.4-2.5 4.7-3.3 7.2-1.8 2.5 1.4 3.4 4.7 1.9 7.2-1.5 2.5-4.8 3.4-7.3 1.9-2.5-1.5-3.3-4.8-1.8-7.3zm202.2-90.2c1.8-2.9 5.5-3.9 8.4-2.2 2.9 1.7 3.9 5.5 2.2 8.4-1.7 2.9-5.5 3.9-8.4 2.2-2.9-1.8-3.9-5.5-2.2-8.4zm43.4 58.7c1.7-2.9 5.5-3.9 8.4-2.1 2.9 1.7 3.8 5.4 2.1 8.4-1.7 2.9-5.5 3.8-8.4 2.1-2.9-1.7-3.9-5.5-2.1-8.4zm-115.1 104.5c0.8-1.4 2.5-1.8 3.9-1 1.3 0.8 1.7 2.5 0.9 3.8-0.7 1.3-2.4 1.8-3.8 1-1.3-0.8-1.7-2.5-1-3.8zm109.8-53.2c0.8-1.3 2.5-1.8 3.9-1 1.3 0.8 1.7 2.5 0.9 3.8-0.8 1.3-2.5 1.8-3.8 1-1.3-0.8-1.7-2.5-1-3.8zm-34.8-151c0.8-1.3 2.5-1.7 3.8-0.9 1.3 0.7 1.8 2.4 1 3.8-0.8 1.3-2.5 1.7-3.8 1-1.3-0.8-1.8-2.5-1-3.9zm-21-20.8c1.7-2.9 5.5-3.9 8.4-2.2 2.9 1.8 3.9 5.5 2.1 8.4-1.7 2.9-5.4 3.9-8.4 2.2-2.9-1.7-3.8-5.5-2.1-8.4zm43.4 69.2c0.8-1.3 2.5-1.8 3.9-1 1.3 0.8 1.7 2.5 0.9 3.8-0.7 1.4-2.5 1.8-3.8 1-1.3-0.8-1.7-2.5-1-3.8zm-81.9-135.9c0.8-1.3 2.5-1.7 3.8-0.9 1.3 0.7 1.8 2.4 1 3.8-0.8 1.3-2.5 1.7-3.8 0.9-1.4-0.7-1.8-2.4-1-3.8zm12.7 58.2c0.8-1.3 2.5-1.8 3.8-1 1.3 0.8 1.8 2.5 1 3.8-0.8 1.4-2.5 1.8-3.8 1-1.3-0.8-1.8-2.5-1-3.8zm64 105.9c0.8-1.3 2.5-1.7 3.8-0.9 1.4 0.8 1.8 2.5 1 3.8-0.8 1.3-2.5 1.8-3.8 1-1.3-0.8-1.8-2.5-1-3.9zm-201-48.5c0.8-1.3 2.5-1.7 3.8-1 1.3 0.8 1.8 2.5 1 3.9-0.8 1.3-2.5 1.7-3.8 0.9-1.3-0.7-1.8-2.5-1-3.8z"/>
			<path id="Object 14" fill-rule="evenodd" class="s2" d="m188.4 153.3c2.7-4.6 8.7-6.1 13.3-3.4 4.6 2.8 6.1 8.7 3.4 13.3-2.7 4.6-8.7 6.2-13.3 3.4-4.6-2.7-6.1-8.6-3.4-13.3zm115.5 135.3c11 21.2 17.2 45.3 17.2 70.8 0 85-68.9 154-154 154-85 0-153.9-69-153.9-154 0-26.1 6.5-50.8 18-72.3 8.3-15.7 19.2-15.1 24.2-10 4.4 4.4 4.1 11.9-4.9 21.5-7.8 8.3-17.9 14.2-22.7 24.4-9.2 19.1-2.8 33.7 12.7 41 15.5 7.2-6.4 12.7 5.5 28.2 11.8 15.5 26.4 4.6 29.1 26.4 2.8 21.9 23.7 23.7 37.4 8.2 13.6-15.5 27.3-17.3 33.7-0.9 8 20.7 28.9 22.8 38-0.2 1.8-4.4 7.4-10.1 15-9.5 6 0.5 12.1 5 15.4 13.7 3.8 9.7 16.8 11.2 24.9 7.2 8.9-4.5 13.4-16.2 23.3-26.7 14.6-15.5 41.9-13.6 51-46.4 7.1-25.7-0.2-44.7-11.2-55.2-3-2.9-17.8-8.6-24-17.1-4.4-6-2.8-11.1-0.8-14.1 4.5-6.6 17.9-4.8 26.1 11zm-181.3-114c1.7-2.9 5.5-3.9 8.4-2.2 2.9 1.7 3.9 5.5 2.2 8.4-1.8 2.9-5.5 3.9-8.4 2.2-2.9-1.8-3.9-5.5-2.2-8.4zm-73.5 153.9c2.5-4.3 8-5.7 12.3-3.2 4.3 2.5 5.7 8.1 3.1 12.3-2.5 4.3-8 5.7-12.3 3.2-4.3-2.5-5.7-8.1-3.1-12.3zm48.6 57.3c1.7-2.9 5.5-3.9 8.4-2.1 2.9 1.7 3.9 5.4 2.2 8.4-1.8 2.9-5.5 3.8-8.4 2.1-2.9-1.7-3.9-5.5-2.2-8.4zm121.4 19.3c1.7-2.9 5.5-3.9 8.4-2.1 2.9 1.7 3.9 5.5 2.1 8.4-1.7 2.9-5.5 3.8-8.4 2.1-2.9-1.7-3.8-5.5-2.1-8.4zm46.6-57.3c2.3-4 7.5-5.3 11.5-3 4 2.4 5.3 7.6 3 11.6-2.4 4-7.6 5.3-11.6 2.9-4-2.3-5.3-7.5-2.9-11.5zm-197.2-91.8c1.7-2.9 5.4-3.8 8.3-2.1 3 1.7 3.9 5.5 2.2 8.4-1.7 2.9-5.5 3.9-8.4 2.1-2.9-1.7-3.9-5.4-2.1-8.4zm7.1 17.7c0.8-1.4 2.5-1.8 3.8-1 1.4 0.8 1.8 2.5 1 3.8-0.8 1.3-2.5 1.8-3.8 1-1.3-0.8-1.8-2.5-1-3.8zm33.1-62.8c0.8-1.3 2.5-1.7 3.8-0.9 1.4 0.7 1.8 2.5 1 3.8-0.8 1.3-2.5 1.7-3.8 1-1.3-0.8-1.8-2.5-1-3.9zm168.3 33c2.7-4.6 8.7-6.2 13.3-3.4 4.6 2.7 6.2 8.7 3.4 13.3-2.7 4.6-8.7 6.2-13.3 3.4-4.7-2.7-6.2-8.7-3.4-13.3zm-204.8-19.2c3.2-5.4 10.2-7.2 15.7-4 5.4 3.2 7.2 10.2 4 15.6-3.2 5.5-10.2 7.3-15.7 4.1-5.4-3.3-7.2-10.3-4-15.7zm-9.2-6.4c0.8-1.3 2.5-1.7 3.9-1 1.3 0.8 1.7 2.5 0.9 3.9-0.7 1.3-2.5 1.7-3.8 0.9-1.3-0.7-1.7-2.5-1-3.8zm183.9 9.9c1.7-2.9 5.5-3.9 8.4-2.2 2.9 1.8 3.8 5.5 2.1 8.4-1.7 2.9-5.5 3.9-8.4 2.2-2.9-1.7-3.9-5.5-2.1-8.4zm-119.6-108.1c2.3-4 7.5-5.3 11.6-2.9 4 2.3 5.3 7.5 3 11.6-2.4 4-7.6 5.3-11.7 3-4-2.4-5.3-7.6-2.9-11.7z"/>
			<path id="Object 15" class="s3" d="m-335.2 422.9c1.7-2.8 5.3-3.7 8.1-2.1 2.9 1.7 3.8 5.3 2.1 8.2-1.7 2.8-5.3 3.7-8.1 2.1-2.9-1.7-3.8-5.4-2.1-8.2zm-7.9 2.7c0.8-1.3 2.5-1.7 3.8-1 1.3 0.8 1.7 2.5 0.9 3.8-0.8 1.3-2.4 1.7-3.7 0.9-1.3-0.7-1.8-2.4-1-3.7z"/>
			<path id="Object 16" class="s3" d="m164.4 431.5c-2.8 1.7-6.5 0.7-8.2-2.1-1.6-2.8-0.7-6.5 2.1-8.1 2.9-1.7 6.5-0.8 8.2 2 1.6 2.9 0.7 6.5-2.1 8.2zm9-1.7c-1.3 0.7-3 0.3-3.8-1-0.7-1.3-0.3-3 1-3.7 1.3-0.8 3-0.4 3.7 0.9 0.8 1.3 0.4 3-0.9 3.8z"/>
			<path id="Object 17" class="s3" d="m131.9 434.8c-2.6 0-4.7-2.1-4.7-4.7 0-2.6 2.1-4.7 4.7-4.7 2.6 0 4.7 2.1 4.7 4.7 0 2.6-2.1 4.7-4.7 4.7zm67 3.7c-2.6 0-4.7-2.1-4.7-4.7 0-2.6 2.1-4.7 4.7-4.7 2.6 0 4.7 2.1 4.7 4.7 0 2.6-2.1 4.7-4.7 4.7zm57.5-5.4c7.3-6.6 8.2-15.6 17.6-23.1 3.9-3 11-3.4 3 2.6-6.6 4.9-9.5 17.3-20.4 22.6-6.5 3.1-3.8 1.2-0.2-2.1zm-160.2 12.4c6.9-1.2 12.4-5.3 17.3-9.1 3.9-3.1 8-6.2 10.2-2.9 1.4 2.1 0 5.8-6.4 9.5-5.5 3.2-13 5.8-20.7 5-7.7-0.7-7.9-1.2-0.4-2.5z"/>
			<path id="Object 18" fill-rule="evenodd" class="s4" d="m492.1 439.5c-17.9 0-33.8-3.9-47.7-11.7-13.8-7.7-24.7-18.6-32.6-32.6q-11.8-21-11.8-49c0-18.5 3.9-34.9 11.8-48.9 7.9-14 18.8-24.9 32.6-32.7 13.9-7.8 29.8-11.6 47.7-11.6 5.4 0 10.5 0.5 15.2 1.6q10.9 2.7 23.8 8.8c6.5 3 10.9 4.6 13.2 4.6 2.3 0 4-1.3 5.2-3.8q1.6-3.9 1.6-7h2.7v52.6h-2.7c-2.5-9-6.6-17.6-12.3-25.9q-8.7-12.4-20.6-20.6-12-8.3-25-8.3c-8.9 0-17.3 3.5-25.1 10.5-7.9 7-14.2 17.3-19.1 30.8q-7.3 20.4-7.3 49.9 0 29.6 7.3 50c4.9 13.6 11.2 23.9 19.1 30.8q11.8 10.4 25.1 10.4 13 0 25-8.2 11.9-8.2 20.6-20.6c5.7-8.3 9.8-17 12.3-25.9h2.7v52.2h-2.7q0-3.3-1.6-7.1c-1.2-2.6-2.9-3.9-5.2-3.9-2.3 0-6.7 1.6-13.2 4.8q-4.6 2.4-10.6 4.8-14.4 6-28.4 6zm263.6-2.1h-86.4v-2q5.7 0 8.6-5.2 2.8-5.2 2.8-13.5c0-7.5-1.7-16.2-5.3-25.8l-2.2-5.6h-68.5c-2.5 6.2-4.4 11.8-5.7 16.6q-2 7.1-2 15 0 8.2 2.9 13.3c1.9 3.5 4.8 5.2 8.7 5.2v2h-46.1v-2c4.8 0 9.5-2.1 14.2-6.3 4.6-4.3 9-9.8 13.1-16.6q6.1-10.2 10.7-22l53-135.5h10.4l53 135.5c3.1 7.9 6.8 15.2 11 22q6.3 10.2 13.5 16.6 7.1 6.3 14.3 6.3zm-83.2-54.2l-33.5-85.5-33.4 85.5zm238.8 54.2h-19.7l-108.6-153.3v106.4c0 12.2 2 22.7 6.1 31.6q6.1 13.3 14.8 13.3v2h-43.8v-2q8.5 0 14.7-13.3c4.1-8.9 6.2-19.4 6.2-31.6v-85.9q0-12.2-2.9-23.1-2.8-10.8-7.5-17.6-4.8-6.8-10.5-6.8v-2.1h56l93 130.7v-83.8q0-18.2-6.1-31.5c-4.1-8.8-9-13.3-14.7-13.3v-2.1h43.8v2.1q-8.6 0-14.7 13.3-6.1 13.3-6.1 31.5zm172.4 0h-146v-2q8.6 0 14.7-7c4.1-4.6 6.2-10.3 6.2-17.1v-130.3c0-6.7-2.1-12.3-6.2-16.9q-6.1-7-14.7-7v-2.1h83.4v2.1q-8.6 0-14.7 7-6 6.9-6.1 16.9v154.4h22.1c8.7 0 17.1-2.6 25.3-7.7q12.3-7.7 21.2-19.7c6-7.9 10.1-16.4 12.6-25.3h2.2zm92.8 0h-83.3v-2.1q8.5 0.1 14.7-6.9c4.1-4.6 6.2-10.3 6.2-17.1v-130.3c0-6.7-2.1-12.3-6.2-17q-6.2-6.9-14.7-6.9v-2.1h83.3v2.1q-8.5 0-14.6 6.9-6.1 7-6.1 17v130.3q0 10.2 6.1 17.1 6.1 7 14.6 6.9z"/>
			<path id="Object 20" class="s5" d="m190.1 369.5l-2.5-0.6-2.5-0.6-2.7-0.5-3-0.4-3.2-0.4-3.2-0.3-2.8-0.2-2.5-0.1h-3.1l-3.4 0.2-2.9 0.2-3.3 0.4-2.5 0.4-3.7 0.7-4.4 1.2-4.6 1.3-39-2.4 40.6-2.6-21.1-4.8 21.2 2.1-37.5-14.8 39.8 10.3-18.9-11.3 19.5 8.6-30-24.9 33.5 21.3-14.5-16.6 15.9 14.2-20-31.9 24.3 29.1-8.5-19.8 10.7 18.4-9.9-38.8 14.9 37.9-2-21.9 4.6 20.8 2.5-40.3 2.5 41 4.9-21.5-2.2 21.2 14.8-37.5-10.2 39.8 11.3-19-8.6 19.6 25.7-31.2-22.1 34.7 16.6-14.5-14.2 15.9 34-21.7-31.6 26.2 20.2-8.7-18.4 10.7 38-9.6-37.1 14.6 21.9-2-20.8 4.5 40.2 2.5-36.4 2.3-1.4-0.4z"/>
			<path id="Object 21" class="s6" d="m1329.4 440q-8.5 0-16.2-1.6c-7.9-1.7-16.8-4.7-26.7-8.8q-10.9-4.6-14.3-4.6-3.2 0-5 1.9-1.7 1.8-2.5 4.4-0.8 2.5-0.8 4.6h-2.6v-52.5h2.6c2.7 8.9 7.6 17.5 14.7 25.8q10.7 12.4 24.6 20.6 13.8 8.2 26.2 8.2 16.6 0 25.2-6.7 8.7-6.6 8.7-18.7c0-6.3-2-12-6.1-16.9-4-5-9.1-9.6-15.3-13.7q-9.3-6.3-19.9-12.2-4.3-2.5-8.7-5.1-4.3-2.6-8.9-5.2c-14.1-7.9-24.4-14.9-30.8-21.1q-14.1-13.5-14.1-32c0-9.9 2.6-18.8 7.9-26.7 5.3-7.9 12.8-14.2 22.5-18.8 9.8-4.6 21.4-6.9 34.8-6.9q8.9 0 15.9 1.8 10.6 2.5 22.2 8.7c5.6 3 9.4 4.5 11.6 4.5q3.2 0 5-1.8c1.2-1.2 2-2.6 2.5-4.3q0.8-2.6 0.8-4.7h2.6v52.5h-2.6c-2.5-9-6.6-17.6-12.4-25.8q-8.7-12.4-20.6-20.6-11.9-8.3-25-8.3-11.7 0-19.1 4.1-7.4 4-10.9 10.7c-2.3 4.3-3.5 9.2-3.5 14.4q0 9.5 5.2 16.4 5.1 6.8 13.5 12.3 15 9.9 38.8 21.6 9.1 4.5 17.8 9.4c5.8 3.2 11 7 15.6 11.2 10 9.1 15.1 20.5 15.1 34.3 0 9.3-2.4 17.7-7.1 25.2-4.7 7.5-12 13.4-22 17.8q-15 6.6-38.7 6.6zm167.2 0q-24.1 0-40.5-7.5-16.4-7.5-24.8-23.9-8.3-16.4-8.3-43.2v-83.4c0-6.6-2-12.3-6-16.9q-6.1-6.9-14.8-6.9v-2.2h83.1v2.2q-8.5 0-14.6 6.9-6.1 6.9-6.1 16.9v83.4q0 22.1 4.3 37.5 4.3 15.4 14 23.5 9.8 8 26 8c15.3 0 27.3-7.6 35.9-22.7q11.5-19.9 11.8-46.3v-83.4q0-10-6.1-16.9-6.1-6.9-14.7-6.9v-2.2h43.7v2.2q-8.6 0-14.7 6.9-6.1 6.9-6.1 16.9v83.4c-0.1 21-4.9 38.2-14.4 51.8q-16.1 22.8-47.7 22.8z"/>
		</g>
	</g>
</svg>